<mxfile host="app.diagrams.net" agent="Mozilla/5.0 (Windows NT 10.0; Win64; x64) AppleWebKit/537.36 (KHTML, like Gecko) Chrome/127.0.0.0 Safari/537.36" version="24.7.7">
  <diagram name="Page-1" id="NAnlpV8po5Nv_PaAFcBA">
    <mxGraphModel dx="2338" dy="1442" grid="0" gridSize="10" guides="1" tooltips="1" connect="1" arrows="1" fold="1" page="0" pageScale="1" pageWidth="827" pageHeight="1169" math="0" shadow="0">
      <root>
        <mxCell id="0" />
        <mxCell id="1" parent="0" />
        <mxCell id="6" value="Consulter les formules d&#39;abonnements" style="rounded=1;whiteSpace=wrap" parent="1" vertex="1">
          <mxGeometry x="402" y="-33" width="130" height="50" as="geometry" />
        </mxCell>
        <mxCell id="7" value="S&#39;inscrire" style="rounded=1;whiteSpace=wrap" parent="1" vertex="1">
          <mxGeometry x="242" y="29" width="114" height="44" as="geometry" />
        </mxCell>
        <mxCell id="8" value="Consulter les cours" style="rounded=1;whiteSpace=wrap" parent="1" vertex="1">
          <mxGeometry x="89" y="34" width="130" height="50" as="geometry" />
        </mxCell>
        <mxCell id="9" value="Consulter Catalog Services" style="rounded=1;whiteSpace=wrap" parent="1" vertex="1">
          <mxGeometry x="602" y="-38" width="164" height="53" as="geometry" />
        </mxCell>
        <mxCell id="10" value="Souscrire à un abonnement" style="rounded=1;whiteSpace=wrap" parent="1" vertex="1">
          <mxGeometry x="600" y="148" width="160" height="50" as="geometry" />
        </mxCell>
        <mxCell id="11" value="Réserver un cours" style="rounded=1;whiteSpace=wrap" parent="1" vertex="1">
          <mxGeometry x="600" y="280" width="160" height="50" as="geometry" />
        </mxCell>
        <mxCell id="12" value="Annuler une réservation" style="rounded=1;whiteSpace=wrap" parent="1" vertex="1">
          <mxGeometry x="603" y="26" width="160" height="50" as="geometry" />
        </mxCell>
        <mxCell id="13" value="Gérer son abonnement" style="rounded=1;whiteSpace=wrap" parent="1" vertex="1">
          <mxGeometry x="600" y="84" width="163" height="50" as="geometry" />
        </mxCell>
        <mxCell id="14" value="Se connecter" style="rounded=1;whiteSpace=wrap" parent="1" vertex="1">
          <mxGeometry x="600" y="210" width="160" height="50" as="geometry" />
        </mxCell>
        <mxCell id="15" value="Modifier son profil" style="rounded=1;whiteSpace=wrap" parent="1" vertex="1">
          <mxGeometry x="600" y="340" width="160" height="50" as="geometry" />
        </mxCell>
        <mxCell id="16" value="Laisser un commentaire" style="rounded=1;whiteSpace=wrap" parent="1" vertex="1">
          <mxGeometry x="600" y="400" width="160" height="50" as="geometry" />
        </mxCell>
        <mxCell id="17" value="Acheter des services" style="rounded=1;whiteSpace=wrap" parent="1" vertex="1">
          <mxGeometry x="600" y="460" width="160" height="50" as="geometry" />
        </mxCell>
        <mxCell id="18" value="Gérer Catalog Services" style="rounded=1;whiteSpace=wrap" parent="1" vertex="1">
          <mxGeometry x="598" y="761" width="160" height="50" as="geometry" />
        </mxCell>
        <mxCell id="19" value="&#xa;Visualiser les Stats: cours, membres inscrits, presence,taux inscript. cours,...&#xa;" style="rounded=1;whiteSpace=wrap;fontSize=11;" parent="1" vertex="1">
          <mxGeometry x="414" y="798" width="160" height="50" as="geometry" />
        </mxCell>
        <mxCell id="20" value="Recevoir des notifications" style="rounded=1;whiteSpace=wrap" parent="1" vertex="1">
          <mxGeometry x="598" y="704" width="160" height="50" as="geometry" />
        </mxCell>
        <mxCell id="21" value="Gérer les utilisateurs/membres" style="rounded=1;whiteSpace=wrap" parent="1" vertex="1">
          <mxGeometry x="196" y="800" width="160" height="50" as="geometry" />
        </mxCell>
        <mxCell id="22" value="Suivi des membres" style="rounded=1;whiteSpace=wrap" parent="1" vertex="1">
          <mxGeometry x="600" y="644" width="157" height="50" as="geometry" />
        </mxCell>
        <mxCell id="23" value="Gérer les coachs" style="rounded=1;whiteSpace=wrap" parent="1" vertex="1">
          <mxGeometry x="598" y="584" width="158" height="50" as="geometry" />
        </mxCell>
        <mxCell id="25" value="Planifier des séances" style="rounded=1;whiteSpace=wrap" parent="1" vertex="1">
          <mxGeometry x="169" y="565" width="90" height="50" as="geometry" />
        </mxCell>
        <mxCell id="26" value="Suivre les entraînements" style="rounded=1;whiteSpace=wrap" parent="1" vertex="1">
          <mxGeometry x="306" y="553" width="145" height="50" as="geometry" />
        </mxCell>
        <mxCell id="27" value="Fournir des services personnalisés" style="rounded=1;whiteSpace=wrap" parent="1" vertex="1">
          <mxGeometry x="598" y="523" width="160" height="50" as="geometry" />
        </mxCell>
        <mxCell id="28" style="rounded=1;entryX=0;entryY=0.5;entryDx=0;entryDy=0;exitX=0.5;exitY=0.5;exitDx=0;exitDy=0;exitPerimeter=0;" parent="1" source="KVx_jI3Rg1KagNch0SJf-57" target="6" edge="1">
          <mxGeometry relative="1" as="geometry">
            <mxPoint x="80" y="100" as="sourcePoint" />
          </mxGeometry>
        </mxCell>
        <mxCell id="29" style="rounded=1;entryX=0;entryY=0;entryDx=0;entryDy=0;exitX=0.5;exitY=0.5;exitDx=0;exitDy=0;exitPerimeter=0;" parent="1" source="KVx_jI3Rg1KagNch0SJf-57" target="7" edge="1">
          <mxGeometry relative="1" as="geometry">
            <mxPoint x="90" y="90" as="sourcePoint" />
          </mxGeometry>
        </mxCell>
        <mxCell id="30" style="rounded=1;exitX=0.5;exitY=0.5;exitDx=0;exitDy=0;exitPerimeter=0;" parent="1" source="KVx_jI3Rg1KagNch0SJf-57" target="8" edge="1">
          <mxGeometry relative="1" as="geometry">
            <mxPoint x="100" y="115" as="sourcePoint" />
          </mxGeometry>
        </mxCell>
        <mxCell id="31" style="rounded=1;" parent="1" source="6" target="9" edge="1">
          <mxGeometry relative="1" as="geometry" />
        </mxCell>
        <mxCell id="32" style="rounded=1;entryX=0;entryY=0.5;entryDx=0;entryDy=0;exitX=0.5;exitY=0.5;exitDx=0;exitDy=0;exitPerimeter=0;" parent="1" source="KVx_jI3Rg1KagNch0SJf-61" target="10" edge="1">
          <mxGeometry relative="1" as="geometry">
            <mxPoint x="100" y="257.5925925925926" as="sourcePoint" />
          </mxGeometry>
        </mxCell>
        <mxCell id="33" style="rounded=1;exitX=0.5;exitY=0.5;exitDx=0;exitDy=0;exitPerimeter=0;" parent="1" source="KVx_jI3Rg1KagNch0SJf-61" target="11" edge="1">
          <mxGeometry relative="1" as="geometry">
            <mxPoint x="100" y="267.58064516129025" as="sourcePoint" />
          </mxGeometry>
        </mxCell>
        <mxCell id="34" style="rounded=1;entryX=0;entryY=0.64;entryDx=0;entryDy=0;entryPerimeter=0;exitX=0.5;exitY=0.5;exitDx=0;exitDy=0;exitPerimeter=0;" parent="1" source="KVx_jI3Rg1KagNch0SJf-61" target="12" edge="1">
          <mxGeometry relative="1" as="geometry">
            <mxPoint x="94.76394849785402" y="250" as="sourcePoint" />
          </mxGeometry>
        </mxCell>
        <mxCell id="35" style="rounded=1;entryX=0;entryY=0.5;entryDx=0;entryDy=0;exitX=0.5;exitY=0.5;exitDx=0;exitDy=0;exitPerimeter=0;" parent="1" source="KVx_jI3Rg1KagNch0SJf-61" target="13" edge="1">
          <mxGeometry relative="1" as="geometry">
            <mxPoint x="100" y="252" as="sourcePoint" />
          </mxGeometry>
        </mxCell>
        <mxCell id="36" style="rounded=1;exitX=0.5;exitY=0.5;exitDx=0;exitDy=0;exitPerimeter=0;" parent="1" source="KVx_jI3Rg1KagNch0SJf-61" target="14" edge="1">
          <mxGeometry relative="1" as="geometry">
            <mxPoint x="100" y="263.0645161290322" as="sourcePoint" />
          </mxGeometry>
        </mxCell>
        <mxCell id="37" style="rounded=1;entryX=0;entryY=0.5;entryDx=0;entryDy=0;exitX=0.5;exitY=0.5;exitDx=0;exitDy=0;exitPerimeter=0;" parent="1" source="KVx_jI3Rg1KagNch0SJf-61" target="15" edge="1">
          <mxGeometry relative="1" as="geometry">
            <mxPoint x="100" y="272.4074074074074" as="sourcePoint" />
          </mxGeometry>
        </mxCell>
        <mxCell id="38" style="rounded=1;entryX=0;entryY=0.5;entryDx=0;entryDy=0;exitX=0.5;exitY=0.5;exitDx=0;exitDy=0;exitPerimeter=0;" parent="1" source="KVx_jI3Rg1KagNch0SJf-61" target="16" edge="1">
          <mxGeometry relative="1" as="geometry">
            <mxPoint x="100" y="276.85185185185173" as="sourcePoint" />
          </mxGeometry>
        </mxCell>
        <mxCell id="39" style="rounded=1;entryX=0;entryY=0.5;entryDx=0;entryDy=0;exitX=0.5;exitY=0.5;exitDx=0;exitDy=0;exitPerimeter=0;" parent="1" source="KVx_jI3Rg1KagNch0SJf-61" target="17" edge="1">
          <mxGeometry relative="1" as="geometry">
            <mxPoint x="96.81818181818176" y="280" as="sourcePoint" />
            <mxPoint x="600" y="460" as="targetPoint" />
          </mxGeometry>
        </mxCell>
        <mxCell id="40" style="rounded=1;exitX=0.5;exitY=0.5;exitDx=0;exitDy=0;exitPerimeter=0;entryX=0;entryY=0;entryDx=0;entryDy=0;" parent="1" source="KVx_jI3Rg1KagNch0SJf-62" target="18" edge="1">
          <mxGeometry relative="1" as="geometry">
            <mxPoint x="92.40000000000009" y="430" as="sourcePoint" />
            <mxPoint x="447" y="763" as="targetPoint" />
          </mxGeometry>
        </mxCell>
        <mxCell id="41" style="rounded=1;exitX=0.5;exitY=0.5;exitDx=0;exitDy=0;exitPerimeter=0;entryX=0;entryY=0;entryDx=0;entryDy=0;" parent="1" source="KVx_jI3Rg1KagNch0SJf-62" target="19" edge="1">
          <mxGeometry relative="1" as="geometry">
            <mxPoint x="85.3125" y="430" as="sourcePoint" />
            <mxPoint x="276" y="760" as="targetPoint" />
          </mxGeometry>
        </mxCell>
        <mxCell id="43" style="rounded=1;exitX=0.5;exitY=0.5;exitDx=0;exitDy=0;exitPerimeter=0;entryX=0;entryY=0.06;entryDx=0;entryDy=0;entryPerimeter=0;" parent="1" source="KVx_jI3Rg1KagNch0SJf-62" target="21" edge="1">
          <mxGeometry relative="1" as="geometry">
            <mxPoint x="82.60602739726028" y="430" as="sourcePoint" />
            <mxPoint x="107" y="786" as="targetPoint" />
          </mxGeometry>
        </mxCell>
        <mxCell id="44" style="rounded=1;entryX=0;entryY=0.5;entryDx=0;entryDy=0;exitX=0.5;exitY=0.5;exitDx=0;exitDy=0;exitPerimeter=0;" parent="1" source="KVx_jI3Rg1KagNch0SJf-62" target="22" edge="1">
          <mxGeometry relative="1" as="geometry">
            <mxPoint x="100" y="424.62962962962956" as="sourcePoint" />
          </mxGeometry>
        </mxCell>
        <mxCell id="45" style="rounded=1;exitX=0.5;exitY=0.5;exitDx=0;exitDy=0;exitPerimeter=0;" parent="1" source="KVx_jI3Rg1KagNch0SJf-62" target="23" edge="1">
          <mxGeometry relative="1" as="geometry">
            <mxPoint x="76.02272727272725" y="430" as="sourcePoint" />
          </mxGeometry>
        </mxCell>
        <mxCell id="46" style="rounded=1;exitX=0.5;exitY=0.5;exitDx=0;exitDy=0;exitPerimeter=0;entryX=0;entryY=0.5;entryDx=0;entryDy=0;" parent="1" source="KVx_jI3Rg1KagNch0SJf-62" target="20" edge="1">
          <mxGeometry relative="1" as="geometry">
            <mxPoint x="100" y="429.0740740740739" as="sourcePoint" />
            <mxPoint x="590" y="710" as="targetPoint" />
          </mxGeometry>
        </mxCell>
        <mxCell id="47" style="rounded=1;exitX=0.5;exitY=0.5;exitDx=0;exitDy=0;exitPerimeter=0;entryX=0;entryY=0;entryDx=0;entryDy=0;" parent="1" source="KVx_jI3Rg1KagNch0SJf-68" target="25" edge="1">
          <mxGeometry relative="1" as="geometry">
            <mxPoint x="66.875" y="580" as="sourcePoint" />
            <mxPoint x="590" y="646" as="targetPoint" />
          </mxGeometry>
        </mxCell>
        <mxCell id="48" style="rounded=1;exitX=0.5;exitY=0.5;exitDx=0;exitDy=0;exitPerimeter=0;entryX=0;entryY=0;entryDx=0;entryDy=0;" parent="1" source="KVx_jI3Rg1KagNch0SJf-68" target="26" edge="1">
          <mxGeometry relative="1" as="geometry">
            <mxPoint x="77.5" y="580" as="sourcePoint" />
            <mxPoint x="314" y="565" as="targetPoint" />
          </mxGeometry>
        </mxCell>
        <mxCell id="49" style="rounded=1;exitX=0.5;exitY=0.5;exitDx=0;exitDy=0;exitPerimeter=0;entryX=0;entryY=0;entryDx=0;entryDy=0;" parent="1" source="KVx_jI3Rg1KagNch0SJf-68" target="27" edge="1">
          <mxGeometry relative="1" as="geometry">
            <mxPoint x="88.125" y="580" as="sourcePoint" />
            <mxPoint x="597" y="603" as="targetPoint" />
          </mxGeometry>
        </mxCell>
        <mxCell id="50" value="&lt;&lt;include&gt;&gt;" style="edgeStyle=orthogonalEdgeStyle;endArrow=block;endFill=0;dashed=1;exitX=1;exitY=0.5;exitDx=0;exitDy=0;entryX=1.001;entryY=0.881;entryDx=0;entryDy=0;entryPerimeter=0;" parent="1" source="10" target="13" edge="1">
          <mxGeometry relative="1" as="geometry">
            <mxPoint x="760" y="130" as="targetPoint" />
            <Array as="points">
              <mxPoint x="789" y="173" />
              <mxPoint x="789" y="128" />
            </Array>
          </mxGeometry>
        </mxCell>
        <mxCell id="51" value="&lt;&lt;include&gt;&gt;" style="edgeStyle=orthogonalEdgeStyle;endArrow=block;endFill=0;dashed=1;exitX=1;exitY=0.5;exitDx=0;exitDy=0;" parent="1" source="11" edge="1">
          <mxGeometry x="-0.0469" relative="1" as="geometry">
            <mxPoint x="758" y="257" as="targetPoint" />
            <Array as="points">
              <mxPoint x="799" y="305" />
              <mxPoint x="799" y="257" />
            </Array>
            <mxPoint as="offset" />
          </mxGeometry>
        </mxCell>
        <mxCell id="52" value="&lt;&lt;include&gt;&gt;" style="edgeStyle=orthogonalEdgeStyle;endArrow=block;endFill=0;dashed=1;entryX=0.5;entryY=1;entryDx=0;entryDy=0;" parent="1" source="19" target="21" edge="1">
          <mxGeometry x="-0.0145" relative="1" as="geometry">
            <mxPoint x="392" y="891" as="sourcePoint" />
            <Array as="points">
              <mxPoint x="470" y="876" />
              <mxPoint x="276" y="876" />
            </Array>
            <mxPoint as="offset" />
          </mxGeometry>
        </mxCell>
        <mxCell id="KVx_jI3Rg1KagNch0SJf-57" value="" style="shape=umlActor;verticalLabelPosition=bottom;verticalAlign=top;html=1;outlineConnect=0;" parent="1" vertex="1">
          <mxGeometry x="-61" y="-41.5" width="30" height="60" as="geometry" />
        </mxCell>
        <mxCell id="KVx_jI3Rg1KagNch0SJf-60" value="Visiteur" style="text;html=1;align=center;verticalAlign=middle;resizable=0;points=[];autosize=1;strokeColor=none;fillColor=none;" parent="1" vertex="1">
          <mxGeometry x="-108" y="-63" width="60" height="30" as="geometry" />
        </mxCell>
        <mxCell id="KVx_jI3Rg1KagNch0SJf-61" value="" style="shape=umlActor;verticalLabelPosition=bottom;verticalAlign=top;html=1;outlineConnect=0;" parent="1" vertex="1">
          <mxGeometry x="-61" y="228" width="30" height="60" as="geometry" />
        </mxCell>
        <mxCell id="KVx_jI3Rg1KagNch0SJf-62" value="" style="shape=umlActor;verticalLabelPosition=bottom;verticalAlign=top;html=1;outlineConnect=0;" parent="1" vertex="1">
          <mxGeometry x="-61" y="713" width="30" height="60" as="geometry" />
        </mxCell>
        <mxCell id="KVx_jI3Rg1KagNch0SJf-66" value="Admin" style="text;html=1;align=center;verticalAlign=middle;whiteSpace=wrap;rounded=0;" parent="1" vertex="1">
          <mxGeometry x="-76" y="664" width="60" height="30" as="geometry" />
        </mxCell>
        <mxCell id="KVx_jI3Rg1KagNch0SJf-67" value="Membre" style="text;html=1;align=center;verticalAlign=middle;whiteSpace=wrap;rounded=0;" parent="1" vertex="1">
          <mxGeometry x="-99" y="198" width="60" height="30" as="geometry" />
        </mxCell>
        <mxCell id="KVx_jI3Rg1KagNch0SJf-68" value="" style="shape=umlActor;verticalLabelPosition=bottom;verticalAlign=top;html=1;outlineConnect=0;" parent="1" vertex="1">
          <mxGeometry x="-122" y="455" width="30" height="60" as="geometry" />
        </mxCell>
        <mxCell id="KVx_jI3Rg1KagNch0SJf-69" value="Coach" style="text;html=1;align=center;verticalAlign=middle;whiteSpace=wrap;rounded=0;" parent="1" vertex="1">
          <mxGeometry x="-165" y="413" width="60" height="30" as="geometry" />
        </mxCell>
        <mxCell id="qZKsJLmDGMZFvN5hdc6K-56" value="API Payment Stripe" style="rounded=1;whiteSpace=wrap" parent="1" vertex="1">
          <mxGeometry x="976" y="299" width="160" height="50" as="geometry" />
        </mxCell>
        <mxCell id="qZKsJLmDGMZFvN5hdc6K-57" value="" style="endArrow=classic;html=1;rounded=0;entryX=0;entryY=0;entryDx=0;entryDy=0;exitX=1;exitY=0.5;exitDx=0;exitDy=0;" parent="1" source="10" target="qZKsJLmDGMZFvN5hdc6K-56" edge="1">
          <mxGeometry width="50" height="50" relative="1" as="geometry">
            <mxPoint x="397" y="415" as="sourcePoint" />
            <mxPoint x="447" y="365" as="targetPoint" />
          </mxGeometry>
        </mxCell>
        <mxCell id="qZKsJLmDGMZFvN5hdc6K-58" value="" style="endArrow=classic;html=1;rounded=0;entryX=0;entryY=1;entryDx=0;entryDy=0;exitX=1;exitY=0;exitDx=0;exitDy=0;" parent="1" source="17" target="qZKsJLmDGMZFvN5hdc6K-56" edge="1">
          <mxGeometry width="50" height="50" relative="1" as="geometry">
            <mxPoint x="397" y="415" as="sourcePoint" />
            <mxPoint x="447" y="365" as="targetPoint" />
          </mxGeometry>
        </mxCell>
        <mxCell id="NJYBeWLR2BhXSszBbY7c-60" value="" style="endArrow=classic;html=1;rounded=0;exitX=0.5;exitY=0.5;exitDx=0;exitDy=0;exitPerimeter=0;entryX=0;entryY=1;entryDx=0;entryDy=0;" parent="1" source="KVx_jI3Rg1KagNch0SJf-62" target="25" edge="1">
          <mxGeometry width="50" height="50" relative="1" as="geometry">
            <mxPoint x="669" y="529" as="sourcePoint" />
            <mxPoint x="719" y="479" as="targetPoint" />
          </mxGeometry>
        </mxCell>
        <mxCell id="NJYBeWLR2BhXSszBbY7c-61" value="" style="endArrow=classic;html=1;rounded=0;exitX=0.5;exitY=0.5;exitDx=0;exitDy=0;exitPerimeter=0;entryX=0;entryY=1;entryDx=0;entryDy=0;" parent="1" source="KVx_jI3Rg1KagNch0SJf-62" target="26" edge="1">
          <mxGeometry width="50" height="50" relative="1" as="geometry">
            <mxPoint x="669" y="529" as="sourcePoint" />
            <mxPoint x="353" y="656" as="targetPoint" />
          </mxGeometry>
        </mxCell>
        <mxCell id="NJYBeWLR2BhXSszBbY7c-62" value="" style="endArrow=classic;html=1;rounded=0;exitX=0.5;exitY=0.5;exitDx=0;exitDy=0;exitPerimeter=0;entryX=0;entryY=1;entryDx=0;entryDy=0;" parent="1" source="KVx_jI3Rg1KagNch0SJf-62" target="27" edge="1">
          <mxGeometry width="50" height="50" relative="1" as="geometry">
            <mxPoint x="669" y="677" as="sourcePoint" />
            <mxPoint x="719" y="627" as="targetPoint" />
          </mxGeometry>
        </mxCell>
        <mxCell id="NJYBeWLR2BhXSszBbY7c-65" value="" style="endArrow=classic;html=1;rounded=0;entryX=0.75;entryY=1;entryDx=0;entryDy=0;" parent="1" source="KVx_jI3Rg1KagNch0SJf-61" target="6" edge="1">
          <mxGeometry width="50" height="50" relative="1" as="geometry">
            <mxPoint x="669" y="258" as="sourcePoint" />
            <mxPoint x="521" y="21" as="targetPoint" />
          </mxGeometry>
        </mxCell>
        <mxCell id="NJYBeWLR2BhXSszBbY7c-70" value="" style="endArrow=classic;html=1;rounded=0;exitX=0.5;exitY=0.5;exitDx=0;exitDy=0;exitPerimeter=0;entryX=0.554;entryY=1.04;entryDx=0;entryDy=0;entryPerimeter=0;" parent="1" source="KVx_jI3Rg1KagNch0SJf-61" target="8" edge="1">
          <mxGeometry width="50" height="50" relative="1" as="geometry">
            <mxPoint x="60" y="200" as="sourcePoint" />
            <mxPoint x="212" y="85" as="targetPoint" />
          </mxGeometry>
        </mxCell>
        <mxCell id="n6asKkfDT6sdKLpLVD0F-74" value="" style="endArrow=classic;html=1;rounded=0;exitX=0.5;exitY=0.5;exitDx=0;exitDy=0;exitPerimeter=0;" parent="1" source="KVx_jI3Rg1KagNch0SJf-68" edge="1">
          <mxGeometry width="50" height="50" relative="1" as="geometry">
            <mxPoint x="415" y="411" as="sourcePoint" />
            <mxPoint x="-37" y="262" as="targetPoint" />
          </mxGeometry>
        </mxCell>
        <mxCell id="n6asKkfDT6sdKLpLVD0F-77" value="&lt;font style=&quot;font-size: 18px;&quot;&gt;Be FIT&lt;/font&gt;" style="swimlane;whiteSpace=wrap;html=1;startSize=23;" parent="1" vertex="1">
          <mxGeometry x="5" y="-99" width="951" height="1011" as="geometry" />
        </mxCell>
        <mxCell id="n6asKkfDT6sdKLpLVD0F-78" style="edgeStyle=orthogonalEdgeStyle;rounded=0;orthogonalLoop=1;jettySize=auto;html=1;exitX=0.5;exitY=1;exitDx=0;exitDy=0;" parent="n6asKkfDT6sdKLpLVD0F-77" edge="1">
          <mxGeometry relative="1" as="geometry">
            <mxPoint x="315" y="585" as="sourcePoint" />
            <mxPoint x="315" y="585" as="targetPoint" />
          </mxGeometry>
        </mxCell>
        <mxCell id="n6asKkfDT6sdKLpLVD0F-92" value="&lt;&lt;include&gt;&gt;" style="edgeStyle=orthogonalEdgeStyle;rounded=1;dashed=1;" parent="n6asKkfDT6sdKLpLVD0F-77" edge="1">
          <mxGeometry x="-0.1414" relative="1" as="geometry">
            <mxPoint x="761" y="579" as="sourcePoint" />
            <mxPoint x="761" y="344" as="targetPoint" />
            <Array as="points">
              <mxPoint x="845" y="579" />
              <mxPoint x="845" y="344" />
            </Array>
            <mxPoint as="offset" />
          </mxGeometry>
        </mxCell>
        <mxCell id="n6asKkfDT6sdKLpLVD0F-81" value="&lt;&lt;include&gt;&gt;" style="edgeStyle=orthogonalEdgeStyle;rounded=1;dashed=1;entryX=1;entryY=1;entryDx=0;entryDy=0;" parent="1" source="27" target="17" edge="1">
          <mxGeometry relative="1" as="geometry">
            <mxPoint x="777" y="545" as="sourcePoint" />
            <mxPoint x="657" y="505" as="targetPoint" />
            <Array as="points">
              <mxPoint x="794" y="548" />
              <mxPoint x="794" y="510" />
            </Array>
          </mxGeometry>
        </mxCell>
        <mxCell id="n6asKkfDT6sdKLpLVD0F-84" value="&lt;&lt;include&gt;&gt;" style="edgeStyle=orthogonalEdgeStyle;rounded=1;dashed=1;exitX=1;exitY=0.5;exitDx=0;exitDy=0;" parent="1" source="18" edge="1">
          <mxGeometry relative="1" as="geometry">
            <mxPoint x="884" y="667" as="sourcePoint" />
            <mxPoint x="760" y="492" as="targetPoint" />
            <Array as="points">
              <mxPoint x="758" y="782" />
              <mxPoint x="825" y="782" />
              <mxPoint x="825" y="492" />
            </Array>
          </mxGeometry>
        </mxCell>
        <mxCell id="n6asKkfDT6sdKLpLVD0F-85" value="&lt;&lt;include&gt;&gt;" style="edgeStyle=orthogonalEdgeStyle;rounded=1;dashed=1;exitX=1;exitY=0.5;exitDx=0;exitDy=0;" parent="1" source="13" edge="1">
          <mxGeometry relative="1" as="geometry">
            <mxPoint x="764" y="116" as="sourcePoint" />
            <mxPoint x="762" y="221" as="targetPoint" />
            <Array as="points">
              <mxPoint x="865" y="109" />
              <mxPoint x="865" y="221" />
            </Array>
          </mxGeometry>
        </mxCell>
        <mxCell id="n6asKkfDT6sdKLpLVD0F-87" value="&lt;&lt;extend&gt;&gt;" style="edgeStyle=orthogonalEdgeStyle;rounded=1;dashed=1;entryX=1;entryY=0.5;entryDx=0;entryDy=0;" parent="1" target="12" edge="1">
          <mxGeometry relative="1" as="geometry">
            <mxPoint x="757" y="563" as="sourcePoint" />
            <mxPoint x="990" y="392" as="targetPoint" />
            <Array as="points">
              <mxPoint x="891" y="563" />
              <mxPoint x="891" y="51" />
            </Array>
            <mxPoint as="offset" />
          </mxGeometry>
        </mxCell>
        <mxCell id="n6asKkfDT6sdKLpLVD0F-89" value="&lt;&lt;extend&gt;&gt;" style="edgeStyle=orthogonalEdgeStyle;rounded=1;dashed=1;entryX=1;entryY=0.25;entryDx=0;entryDy=0;exitX=1;exitY=0.75;exitDx=0;exitDy=0;" parent="1" source="11" target="12" edge="1">
          <mxGeometry relative="1" as="geometry">
            <mxPoint x="946" y="164" as="sourcePoint" />
            <mxPoint x="1176" y="-6" as="targetPoint" />
            <Array as="points">
              <mxPoint x="924" y="318" />
              <mxPoint x="924" y="39" />
            </Array>
          </mxGeometry>
        </mxCell>
        <mxCell id="n6asKkfDT6sdKLpLVD0F-90" value="&lt;&lt;extend&gt;&gt;" style="edgeStyle=orthogonalEdgeStyle;rounded=1;dashed=1;entryX=1;entryY=0.75;entryDx=0;entryDy=0;exitX=1;exitY=0.25;exitDx=0;exitDy=0;" parent="1" source="13" target="12" edge="1">
          <mxGeometry relative="1" as="geometry">
            <mxPoint x="1041" y="49" as="sourcePoint" />
            <mxPoint x="1271" y="-121" as="targetPoint" />
            <Array as="points">
              <mxPoint x="810" y="97" />
              <mxPoint x="810" y="64" />
              <mxPoint x="763" y="64" />
            </Array>
          </mxGeometry>
        </mxCell>
        <mxCell id="n6asKkfDT6sdKLpLVD0F-91" value="&lt;&lt;extend&gt;&gt;" style="edgeStyle=orthogonalEdgeStyle;rounded=1;dashed=1;entryX=1;entryY=0.5;entryDx=0;entryDy=0;" parent="1" target="15" edge="1">
          <mxGeometry x="-0.328" relative="1" as="geometry">
            <mxPoint x="768" y="119" as="sourcePoint" />
            <mxPoint x="1082" y="-30.5" as="targetPoint" />
            <Array as="points">
              <mxPoint x="833" y="119" />
              <mxPoint x="833" y="365" />
            </Array>
            <mxPoint as="offset" />
          </mxGeometry>
        </mxCell>
        <mxCell id="cA3ww9-dxl-ybnLsPIU9-52" value="&lt;&lt;extend&gt;&gt;" style="edgeStyle=orthogonalEdgeStyle;rounded=1;dashed=1;exitX=1;exitY=0.5;exitDx=0;exitDy=0;entryX=1;entryY=0.75;entryDx=0;entryDy=0;" edge="1" parent="1" source="19" target="22">
          <mxGeometry relative="1" as="geometry">
            <mxPoint x="892" y="723" as="sourcePoint" />
            <mxPoint x="798" y="607" as="targetPoint" />
            <Array as="points">
              <mxPoint x="851" y="823" />
              <mxPoint x="851" y="682" />
            </Array>
          </mxGeometry>
        </mxCell>
        <mxCell id="cA3ww9-dxl-ybnLsPIU9-53" value="&lt;&lt;extend&gt;&gt;" style="edgeStyle=orthogonalEdgeStyle;rounded=1;dashed=1;entryX=1;entryY=0.5;entryDx=0;entryDy=0;exitX=0.25;exitY=1;exitDx=0;exitDy=0;" edge="1" parent="1" source="21" target="22">
          <mxGeometry relative="1" as="geometry">
            <mxPoint x="224" y="904" as="sourcePoint" />
            <mxPoint x="760" y="656" as="targetPoint" />
            <Array as="points">
              <mxPoint x="236" y="894" />
              <mxPoint x="921" y="894" />
              <mxPoint x="921" y="669" />
            </Array>
          </mxGeometry>
        </mxCell>
      </root>
    </mxGraphModel>
  </diagram>
</mxfile>
